<svg id="svg-logo" fill="currentColor" xmlns="http://www.w3.org/2000/svg" viewBox="0 0 53.63 14.17">
  <g>
    <path d="M7.27,13.94H0V.23H7V1.68H1.61V6.25H6.56V7.69H1.61v4.8H7.27Z"/>
    <path d="M17,13.94H9.91V.23h1.6V12.49H17Z"/>
    <path d="M26.4,13.94H19.13V.23h7V1.68H20.73V6.25h5V7.69h-5v4.8H26.4Z"/>
    <path d="M34.56,14.17a6,6,0,0,1-4.67-1.92,7.12,7.12,0,0,1-1.75-5A7.55,7.55,0,0,1,29.92,2a6.28,6.28,0,0,1,4.87-2,5.9,5.9,0,0,1,4.58,1.91,7.16,7.16,0,0,1,1.73,5,7.6,7.6,0,0,1-1.77,5.31A6.15,6.15,0,0,1,34.56,14.17Zm.12-12.72A4.42,4.42,0,0,0,31.17,3a6,6,0,0,0-1.35,4.1,6.07,6.07,0,0,0,1.31,4.07,4.3,4.3,0,0,0,3.43,1.55,4.51,4.51,0,0,0,3.56-1.47,6,6,0,0,0,1.3-4.13,6.26,6.26,0,0,0-1.26-4.19A4.32,4.32,0,0,0,34.68,1.45Z"/>
    <path d="M53.63,13.94H51.72l-2.3-3.84a7.53,7.53,0,0,0-.61-.91,3.27,3.27,0,0,0-.61-.62,2,2,0,0,0-.66-.35,2.88,2.88,0,0,0-.81-.11H45.41v5.83H43.8V.23h4.09a5.8,5.8,0,0,1,1.66.22,3.62,3.62,0,0,1,1.32.69,3.1,3.1,0,0,1,.88,1.14,3.81,3.81,0,0,1,.31,1.6,4,4,0,0,1-.21,1.32,3.38,3.38,0,0,1-.61,1.06,3.72,3.72,0,0,1-1,.8A4.75,4.75,0,0,1,49,7.57v0a2.87,2.87,0,0,1,.6.35,3,3,0,0,1,.48.47,5,5,0,0,1,.46.6l.5.79ZM45.41,1.68v5h2.18a3.08,3.08,0,0,0,1.11-.19A2.55,2.55,0,0,0,49.59,6a2.26,2.26,0,0,0,.58-.83A2.8,2.8,0,0,0,50.38,4a2.16,2.16,0,0,0-.71-1.72,3.07,3.07,0,0,0-2.06-.62Z"/>
  </g>
</svg>
